<?xml version="1.0" standalone="no"?>
<!DOCTYPE svg PUBLIC "-//W3C//DTD SVG 20010904//EN"
 "http://www.w3.org/TR/2001/REC-SVG-20010904/DTD/svg10.dtd">
<svg version="1.0" xmlns="http://www.w3.org/2000/svg"
 width="1024.000000pt" height="1024.000000pt" viewBox="0 0 1024.000000 1024.000000"
 preserveAspectRatio="xMidYMid meet">

<g transform="translate(0.000000,1024.000000) scale(0.100000,-0.100000)"
fill="#000000" stroke="none">
<path d="M5990 9882 c-80 -109 -213 -304 -271 -399 -49 -82 -45 -80 -160 -62
-66 10 -73 14 -117 61 -57 61 -270 259 -332 308 -42 33 -43 33 -36 10 43 -140
79 -335 65 -356 -2 -3 -67 -8 -144 -10 -308 -10 -603 -61 -932 -160 -547 -165
-1186 -516 -1511 -828 l-74 -71 6 -50 c8 -62 43 -565 60 -855 l13 -215 -25
-35 c-37 -52 -114 -130 -123 -124 -9 5 -29 -58 -54 -173 l-18 -82 -44 -7 c-24
-3 -47 -4 -50 -1 -3 4 -1 40 6 81 6 41 18 175 26 298 8 123 22 295 30 383 19
205 45 547 45 603 l0 43 -23 -18 c-58 -46 -255 -278 -387 -458 -160 -215 -406
-662 -524 -951 -59 -144 -146 -406 -146 -438 l0 -26 215 0 c167 0 215 -3 215
-13 0 -7 -14 -29 -31 -50 l-30 -37 -199 0 -198 0 -12 -32 c-14 -40 -54 -282
-72 -433 -20 -168 -17 -773 5 -942 26 -208 80 -445 158 -693 59 -188 105 -309
126 -333 18 -19 13 -29 -20 -34 -135 -20 -288 -111 -394 -235 -174 -203 -202
-475 -74 -706 l30 -53 -31 -52 c-124 -210 -109 -343 58 -510 119 -120 252
-177 424 -184 134 -6 229 13 334 66 l79 41 16 -23 c9 -12 30 -38 48 -58 l33
-36 0 -230 c0 -196 3 -241 20 -307 50 -198 182 -350 366 -423 l69 -28 792 -2
793 -1 98 -31 c350 -109 640 -151 1036 -151 367 0 679 45 984 141 l123 39 763
0 c463 0 784 4 817 10 30 5 92 29 139 52 121 59 202 142 263 268 25 52 51 115
56 140 6 25 11 156 11 292 l0 247 438 3 437 3 57 27 c72 34 131 95 160 166
l23 57 0 635 0 635 -23 47 c-31 63 -97 121 -166 147 -48 18 -78 21 -192 21
-105 0 -135 3 -131 12 99 262 227 818 256 1113 40 406 9 956 -72 1280 l-12 50
-324 3 -323 2 6 -25 c20 -81 20 -75 -11 -75 -25 0 -30 6 -46 50 -16 45 -21 50
-48 50 -36 0 -64 13 -102 48 -21 20 -30 23 -39 14 -7 -7 -22 -12 -34 -12 -20
0 -119 -39 -100 -40 5 0 4 -6 -2 -13 -6 -7 -29 -60 -51 -118 -23 -59 -50 -114
-61 -124 -19 -17 -20 -17 -35 18 -14 34 -35 149 -51 282 -3 33 -9 54 -11 48
-3 -10 -9 -9 -26 1 -34 21 -77 29 -77 14 -1 -7 -7 -2 -14 11 -13 23 -21 3
-115 -284 -120 -363 -143 -415 -169 -382 -5 6 -44 107 -87 222 -84 228 -105
274 -131 296 -14 11 -80 15 -333 20 -288 5 -328 8 -446 32 -71 15 -141 29
-155 33 -25 6 -25 6 -3 15 38 14 911 23 960 10 53 -15 92 -60 128 -153 15 -38
30 -66 34 -61 3 5 19 4 36 -2 22 -7 30 -16 29 -33 -1 -19 9 -23 12 -4 0 4 6
21 13 37 20 46 94 282 176 560 144 489 165 551 189 567 35 24 52 -19 71 -177
9 -77 20 -148 26 -157 5 -10 9 -24 9 -31 0 -7 12 -25 28 -39 19 -19 32 -24 47
-18 15 5 23 2 33 -14 l13 -21 -4 23 c-3 12 -2 22 2 22 3 0 14 22 24 50 10 27
29 62 42 77 23 28 24 28 39 8 20 -27 73 -328 92 -520 11 -113 -20 -105 399
-105 l362 0 -4 38 c-14 136 -154 490 -312 790 -205 390 -478 746 -828 1080
-88 84 -206 190 -264 236 -139 111 -392 292 -451 322 -34 17 -57 39 -82 78
-19 29 -75 100 -124 157 -97 112 -400 415 -407 407 -3 -2 0 -20 5 -39 11 -37
13 -140 4 -186 l-6 -29 -111 54 c-62 30 -122 58 -134 63 -30 11 -116 136 -168
244 -63 132 -86 215 -88 318 0 48 -1 87 -2 87 0 0 -29 -40 -65 -88z m40 -317
c18 -56 72 -162 110 -213 17 -24 73 -92 125 -151 133 -154 179 -228 227 -374
33 -102 41 -140 45 -229 3 -61 2 -108 -3 -108 -5 0 -20 28 -33 63 -24 62 -80
159 -100 171 -5 4 -15 -3 -21 -14 -11 -21 -3 -42 23 -61 5 -4 7 -15 5 -25 -3
-14 -10 -8 -27 26 -33 63 -243 364 -263 376 -5 3 -2 -11 7 -33 36 -83 58 -153
81 -262 13 -63 22 -116 21 -118 -4 -3 -50 64 -104 149 -17 28 -41 60 -52 71
-18 19 -18 15 5 -42 14 -35 24 -65 22 -67 -3 -2 -28 28 -57 66 -51 69 -64 82
-56 58 35 -113 54 -165 82 -227 18 -40 33 -76 33 -79 0 -9 -145 135 -191 190
-38 45 -41 53 -55 155 -33 251 -7 411 102 642 26 55 48 91 53 85 5 -5 14 -27
21 -49z m-694 -168 c34 -50 96 -147 139 -215 97 -155 177 -262 245 -329 l53
-53 -7 -92 c-4 -51 -9 -120 -13 -152 l-6 -60 -49 55 -49 54 32 -53 c27 -46 94
-221 86 -228 -1 -1 -40 55 -87 126 -46 71 -85 128 -87 127 -1 -2 10 -41 24
-87 42 -138 83 -294 80 -304 -1 -4 -15 16 -31 45 -16 30 -43 68 -62 85 -18 18
-31 34 -28 36 2 3 -5 13 -16 23 -20 18 -20 18 -5 -25 17 -50 18 -50 7 -50 -5
0 -15 15 -24 33 l-16 32 -11 -30 c-11 -25 -7 -43 24 -135 20 -58 45 -120 56
-139 33 -57 -4 -17 -59 62 -122 177 -205 399 -232 622 -6 50 -14 232 -19 406
-4 173 -11 321 -15 327 -4 7 -4 12 1 12 4 0 36 -42 69 -93z m1498 -392 c207
-259 338 -538 367 -782 12 -100 6 -160 -28 -269 l-18 -59 -5 85 -5 85 -14 -60
c-18 -78 -80 -267 -92 -280 -12 -12 -12 -1 1 63 15 82 42 303 37 308 -2 2 -19
-34 -37 -81 -18 -47 -35 -84 -37 -81 -2 2 3 47 12 100 8 53 15 126 15 163 l-1
68 -19 -54 c-11 -30 -22 -56 -25 -59 -3 -3 -5 25 -5 61 0 115 -29 286 -71 412
-45 140 -64 174 -54 103 12 -92 22 -193 20 -196 -2 -2 -18 21 -37 51 -18 29
-47 75 -64 100 -30 44 -31 51 -37 184 -4 76 -14 172 -22 213 -8 41 -15 77 -15
80 1 7 46 -46 134 -155z m-1899 -39 c50 -97 137 -229 230 -350 56 -73 95 -135
95 -151 0 -3 -9 -1 -20 5 -26 14 -26 -2 1 -20 11 -8 25 -23 30 -32 17 -30
-193 134 -222 175 -38 52 -37 33 2 -51 17 -37 44 -98 60 -137 l29 -70 -37 45
c-21 25 -54 63 -75 85 l-36 40 24 -84 c13 -46 22 -93 18 -104 -4 -12 -2 -17 4
-13 6 3 15 -8 21 -26 14 -40 14 -41 -6 -33 -10 3 -45 9 -77 11 -85 7 -92 13
-111 95 -35 158 -44 321 -25 479 12 95 40 233 47 227 2 -3 24 -43 48 -91z
m1676 -178 c108 -129 199 -288 248 -435 43 -127 45 -299 5 -473 -14 -62 -18
-70 -46 -79 -17 -6 -33 -9 -35 -7 -3 2 1 37 7 78 6 40 10 91 8 112 l-3 39 -32
-79 c-19 -45 -42 -85 -54 -92 -21 -14 -22 -13 -15 20 12 54 25 160 25 198 0
29 -3 25 -18 -30 -20 -72 -45 -134 -37 -92 3 15 -1 25 -11 29 -16 6 -35 -15
-27 -29 3 -4 2 -8 -3 -8 -4 0 -23 -27 -42 -60 -19 -33 -36 -58 -38 -56 -2 2
10 61 26 132 47 204 54 276 49 492 -5 192 -6 199 -39 300 -19 56 -32 102 -28
102 4 0 31 -28 60 -62z m-756 -100 c16 -23 89 -105 165 -183 188 -193 268
-310 318 -465 21 -63 52 -199 52 -223 0 -13 -2 -11 -79 130 -30 54 -76 130
-104 168 -47 67 -76 102 -65 80 32 -62 101 -335 85 -335 -3 0 -37 77 -77 170
-40 94 -77 173 -83 177 -6 4 -8 0 -4 -10 24 -62 48 -377 29 -377 -4 0 -16 17
-25 38 -9 20 -28 51 -42 67 l-25 30 1 -35 c0 -19 0 -64 0 -100 -2 -64 -2 -65
-20 -44 -10 13 -29 77 -45 150 -16 71 -48 216 -72 323 -35 151 -46 222 -51
321 -5 114 -2 160 10 160 3 0 17 -19 32 -42z m-1305 -67 c0 -16 -18 -23 -117
-46 -284 -66 -585 -185 -838 -330 -267 -154 -546 -389 -790 -668 -56 -63 -61
-67 -79 -54 -19 14 -15 20 76 123 414 472 949 806 1523 955 173 44 225 49 225
20z m1919 -52 c5 -16 9 -31 8 -34 -1 -2 5 -10 14 -17 28 -22 42 -74 34 -124
-7 -51 -16 -49 -35 11 -7 22 -28 73 -47 114 -24 54 -30 77 -22 82 19 11 37 0
48 -32z m-1634 -409 c99 -74 245 -213 245 -231 0 -6 -6 -7 -12 -3 -7 4 -4 -2
6 -14 27 -31 5 -28 -24 3 -24 25 -51 36 -32 13 5 -7 17 -30 25 -50 13 -31 13
-36 1 -31 -15 6 -19 -7 -6 -23 14 -15 53 -117 47 -122 -30 -31 -201 198 -329
439 -31 58 -56 109 -56 113 0 8 -2 10 135 -94z m2511 -52 c26 -171 11 -335
-41 -475 -30 -79 -63 -118 -123 -144 -73 -32 -78 -24 -32 44 34 50 38 66 13
46 -11 -10 -14 -10 -9 -1 4 6 3 12 -3 12 -6 0 -15 -9 -21 -20 -13 -24 -26 -26
-34 -4 -4 10 9 33 33 62 94 112 162 289 182 469 7 62 15 111 17 108 2 -2 10
-45 18 -97z m-2214 23 c124 -39 252 -103 356 -180 45 -33 82 -63 82 -67 0 -3
-4 -3 -9 1 -5 3 -27 7 -48 9 -21 2 -72 18 -112 35 -41 17 -76 29 -79 26 -3 -3
10 -22 29 -43 65 -70 82 -92 77 -97 -3 -3 -25 12 -49 33 -79 67 -83 68 -40 5
23 -35 40 -63 37 -63 -3 0 22 -46 55 -102 l60 -103 -61 60 c-34 33 -128 136
-207 229 -80 92 -174 199 -209 236 -35 37 -64 70 -64 73 0 3 19 0 43 -8 23 -8
86 -28 139 -44z m1521 -226 c-3 -9 -8 -14 -10 -11 -3 3 -2 9 2 15 9 16 15 13
8 -4z m-13 -29 c0 -3 -4 -8 -10 -11 -5 -3 -10 -1 -10 4 0 6 5 11 10 11 6 0 10
-2 10 -4z m-2574 -157 c101 -34 197 -90 314 -183 79 -63 102 -78 81 -53 -8 10
-12 19 -9 22 14 14 254 66 350 76 220 22 454 -23 564 -110 l24 -19 -36 -7
c-20 -3 -91 -26 -158 -51 -66 -25 -148 -52 -180 -60 -33 -9 -69 -22 -80 -30
-11 -8 -32 -14 -46 -15 -14 0 -34 -5 -45 -10 -35 -16 125 0 303 31 92 16 201
32 242 36 l75 6 -32 -21 c-37 -23 -43 -36 -13 -26 11 3 20 3 20 -1 0 -8 -140
-245 -153 -259 -6 -5 2 12 16 39 31 56 31 56 15 56 -7 0 -33 -23 -57 -51 -61
-71 -116 -109 -158 -109 -42 0 -77 18 -146 73 -32 27 -67 46 -90 50 -20 3 -44
13 -53 21 -9 9 -32 16 -55 16 -57 0 -48 17 14 25 119 15 243 38 252 46 5 6 3
9 -7 9 -9 0 -62 5 -119 10 -145 15 -249 43 -327 90 -73 44 -107 53 -78 21 15
-17 3 -15 -87 14 -177 58 -410 66 -587 20 -94 -24 -253 -103 -346 -172 -44
-33 -109 -95 -143 -137 -35 -42 -65 -76 -66 -76 -3 0 29 119 40 145 4 11 16
40 26 64 21 48 18 66 -6 35 -14 -19 -14 -19 -15 1 0 17 -2 17 -10 5 -5 -8 -7
-24 -4 -35 4 -15 3 -16 -4 -6 -8 11 -16 4 -37 -30 -77 -123 -97 -151 -101
-147 -7 8 25 162 50 234 48 142 85 204 181 299 73 74 106 99 176 133 164 81
325 90 505 31z m1857 -28 c49 -76 64 -120 73 -206 5 -50 9 -63 14 -45 6 25 6
25 12 3 4 -15 14 -23 27 -23 18 0 21 6 21 38 0 76 3 79 93 86 82 7 107 17 107
43 0 36 33 75 83 99 90 41 110 36 198 -54 83 -87 129 -166 129 -224 0 -21 -11
-81 -25 -134 -14 -53 -25 -101 -25 -107 0 -6 21 21 46 59 l46 69 -6 -78 c-11
-143 -78 -237 -128 -179 -11 12 -17 48 -21 122 -8 151 -61 331 -101 338 -32 7
-146 -9 -146 -19 0 -6 5 -7 10 -4 15 9 12 0 -11 -40 -16 -27 -18 -36 -8 -35
27 4 39 0 39 -14 0 -7 7 -19 15 -26 8 -7 15 -27 15 -45 0 -18 7 -52 15 -75 8
-23 15 -45 15 -47 0 -3 -18 11 -39 30 -22 20 -55 43 -73 53 -31 15 -30 13 16
-34 27 -28 77 -90 110 -139 59 -84 64 -88 109 -97 l48 -9 -7 -86 c-3 -47 -10
-90 -15 -95 -13 -14 -58 10 -71 39 -14 30 -30 28 -38 -6 -6 -22 -8 -20 -30 24
-30 60 -48 71 -86 51 -51 -26 -51 -35 -2 -28 44 6 47 5 62 -24 15 -29 22 -92
11 -92 -3 0 -15 9 -27 20 -25 23 -65 25 -91 5 -16 -11 -18 -21 -12 -55 6 -38
4 -43 -29 -74 -39 -38 -101 -55 -134 -37 -39 21 -229 274 -277 370 -21 42 -25
62 -20 89 8 44 69 170 94 196 18 18 19 17 26 -23 6 -37 4 -44 -24 -70 -37 -35
-51 -69 -51 -124 0 -51 30 -104 67 -118 73 -27 144 27 203 155 30 66 100 261
100 281 0 10 -109 -39 -169 -76 -35 -22 -66 -38 -68 -35 -3 3 -8 26 -11 51 -5
45 -33 78 -47 55 -11 -17 -20 -11 -33 22 -10 28 -9 34 8 50 28 26 25 59 -11
130 l-31 61 -35 -49 c-41 -57 -83 -145 -83 -176 0 -32 48 -108 75 -118 l23 -9
-20 -40 c-11 -23 -23 -41 -27 -41 -8 0 -83 113 -115 173 l-25 49 31 61 c66
133 150 246 183 247 6 0 27 -27 48 -59z m1019 1 c92 -98 128 -192 128 -336 0
-169 -72 -326 -213 -464 l-44 -43 28 58 c63 132 94 339 70 468 -16 86 -63 176
-130 246 -54 56 -57 61 -37 69 12 4 41 17 66 28 67 31 82 28 132 -26z m-861
-9 c13 -16 12 -17 -3 -4 -10 7 -18 15 -18 17 0 8 8 3 21 -13z m1346 -146 c-25
-52 -63 -116 -85 -143 -36 -46 -158 -147 -209 -173 -34 -17 -30 10 7 53 18 20
26 37 20 41 -5 3 -14 3 -20 0 -6 -4 -10 11 -10 38 0 42 2 44 38 55 56 17 151
84 228 160 38 37 71 66 73 65 2 -1 -17 -44 -42 -96z m-5416 52 c6 -12 15 -36
20 -53 14 -45 59 -498 66 -662 l6 -141 -58 -46 c-32 -25 -64 -43 -71 -40 -7 2
-14 -1 -16 -9 -4 -15 -136 -143 -142 -137 -7 8 65 617 99 844 35 231 63 304
96 244z m5681 -235 c36 -39 45 -53 36 -62 -21 -21 -35 -13 -100 54 -72 75 -74
79 -58 99 11 13 17 11 44 -13 17 -15 52 -50 78 -78z m-1812 -11 c0 -7 -4 -13
-9 -13 -8 0 -32 78 -30 97 1 12 38 -70 39 -84z m-1637 -42 c163 -56 324 -185
392 -313 l15 -26 -148 0 c-105 0 -187 -6 -287 -22 -120 -19 -166 -22 -320 -17
-159 4 -193 8 -295 35 -105 28 -116 29 -127 15 -8 -10 -13 -12 -13 -5 0 23
154 169 228 217 96 61 209 113 286 131 78 17 193 11 269 -15z m1895 -30 c-23
-38 -119 -121 -140 -121 -19 0 -58 -54 -58 -81 0 -39 26 -51 69 -33 45 19 48
18 16 -8 -78 -61 -148 11 -95 97 24 38 218 200 228 190 2 -2 -7 -22 -20 -44z
m-3097 7 c-5 -13 -21 -46 -35 -74 -14 -29 -26 -64 -26 -79 0 -29 -40 -125 -52
-125 -5 0 -8 -5 -8 -11 0 -6 -9 -23 -19 -38 -11 -15 -23 -39 -26 -54 -4 -15
-11 -27 -17 -27 -25 0 -287 -254 -275 -266 2 -3 22 7 43 21 71 48 205 106 303
131 120 31 215 39 311 26 74 -10 256 -60 247 -68 -2 -3 -16 0 -31 6 -15 5 -25
6 -22 2 3 -5 38 -21 78 -37 40 -15 75 -31 78 -34 3 -3 14 -8 25 -10 11 -1 31
-9 45 -16 24 -13 23 -14 -15 -8 -22 3 -53 12 -69 19 -36 17 -36 17 -36 1 0
-33 -74 -159 -129 -219 -79 -86 -136 -123 -239 -154 -68 -21 -100 -25 -167
-22 -76 3 -85 6 -128 38 -25 19 -55 42 -66 50 -52 36 -90 160 -61 195 7 9 11
18 8 21 -3 2 -17 -21 -32 -53 -15 -32 -34 -74 -44 -95 -9 -20 -20 -34 -24 -32
-13 9 -9 -45 7 -82 27 -65 73 -112 143 -146 92 -44 215 -51 324 -18 109 33
145 49 129 59 -10 7 -9 10 4 14 9 4 13 3 10 -3 -9 -15 17 -11 50 8 89 51 125
78 120 91 -3 8 0 11 9 8 19 -7 128 84 156 130 13 21 25 33 27 26 7 -21 -52
-97 -141 -179 -182 -171 -408 -252 -598 -214 -80 15 -123 37 -176 91 -94 95
-124 229 -75 328 12 25 21 46 20 47 -1 1 -38 -22 -82 -52 -44 -30 -119 -73
-167 -96 -49 -23 -88 -45 -88 -48 0 -3 20 -18 44 -33 93 -59 159 -146 206
-275 75 -206 60 -417 -46 -641 -24 -52 -46 -92 -48 -90 -2 2 7 63 20 134 49
264 52 447 10 585 l-13 45 -7 -110 c-9 -136 -57 -377 -86 -435 -14 -28 -19
-51 -15 -69 4 -19 3 -22 -4 -11 -6 8 -11 12 -13 10 -14 -21 -57 -121 -62 -147
-11 -49 -49 -70 -152 -83 -49 -6 -109 -18 -133 -26 -25 -7 -46 -12 -48 -10
-13 12 -64 188 -68 231 -7 70 -11 97 -30 198 -9 49 -20 134 -23 190 l-7 102
-23 -103 c-17 -82 -22 -132 -21 -250 0 -106 3 -139 10 -117 9 30 14 229 5 243
-2 4 2 21 10 37 7 17 13 23 12 15 -1 -8 2 -22 5 -30 15 -33 33 -157 27 -175
-4 -11 -4 -24 0 -30 4 -5 10 -46 13 -90 6 -80 6 -80 -8 -35 l-14 45 6 -50 c5
-41 23 -112 49 -195 3 -9 -16 -33 -50 -62 l-54 -47 -30 112 c-65 237 -87 452
-63 618 24 164 121 399 221 530 66 88 146 152 384 306 l198 129 27 79 c41 123
78 182 176 281 78 79 104 98 193 143 57 28 108 51 113 51 5 0 5 -10 0 -22z
m2477 -30 c-5 -18 -9 -42 -7 -53 7 -58 -2 -110 -36 -200 -48 -129 -98 -232
-130 -270 l-26 -30 17 35 c9 18 22 40 30 47 11 11 11 60 0 71 -2 2 -17 -19
-34 -45 -33 -51 -71 -101 -72 -93 0 11 80 241 113 322 41 102 125 248 143 248
10 0 10 -8 2 -32z m991 -50 c21 -63 20 -78 -5 -78 -19 0 -53 75 -54 116 0 68
30 49 59 -38z m-439 -68 c0 -6 -15 -26 -32 -44 -36 -38 -78 -56 -78 -34 1 19
21 41 60 65 40 25 50 27 50 13z m-497 -54 c12 2 16 2 10 -2 -7 -3 -13 -10 -13
-15 0 -6 5 -7 10 -4 6 3 10 -1 10 -10 0 -9 -4 -14 -9 -11 -5 4 -7 -4 -3 -16 4
-16 2 -19 -8 -13 -9 5 -11 4 -6 -3 4 -7 4 -28 0 -48 -4 -22 -9 -31 -14 -24
-13 22 -19 -15 -35 -230 -19 -261 -24 -310 -35 -310 -5 0 -14 17 -22 38 -15
43 -13 288 3 392 15 100 50 242 68 275 l16 30 3 -26 c2 -22 8 -26 25 -23z
m-2348 -76 c17 0 26 -35 12 -49 -6 -6 -28 -11 -49 -11 -34 0 -38 3 -38 24 0
14 4 28 10 31 6 3 7 -1 4 -10 -5 -11 -2 -14 10 -9 9 3 19 18 23 33 5 19 8 21
11 9 2 -10 9 -18 17 -18z m1536 -38 c145 -95 286 -211 406 -335 146 -150 237
-299 261 -427 15 -77 24 -190 16 -190 -4 0 -39 23 -78 52 -257 188 -303 217
-206 132 36 -32 116 -109 179 -171 l113 -114 -7 -47 c-3 -26 -11 -67 -17 -91
l-11 -44 -12 47 c-7 26 -20 55 -28 64 -15 14 -17 14 -22 -4 -13 -39 -22 -50
-66 -72 -68 -36 -145 -27 -262 32 -255 127 -393 255 -521 482 -46 83 -109 228
-120 282 l-7 30 78 18 c51 11 125 17 215 18 75 1 134 4 130 8 -11 10 -261 67
-349 79 -51 7 -116 7 -188 1 -61 -5 -112 -7 -114 -6 -2 2 31 20 75 40 43 19
129 59 189 89 61 29 145 65 187 80 l77 27 -25 44 c-36 61 -18 57 107 -24z
m915 -74 c19 -23 19 -23 -2 -5 -21 18 -39 23 -30 9 3 -5 -1 -9 -8 -9 -8 0 -12
6 -9 14 8 20 28 16 49 -9z m-2251 2 c3 -5 1 -10 -4 -10 -6 0 -11 5 -11 10 0 6
2 10 4 10 3 0 8 -4 11 -10z m2300 -40 c10 -11 16 -20 13 -20 -3 0 -13 9 -23
20 -10 11 -16 20 -13 20 3 0 13 -9 23 -20z m19 -59 c17 -17 24 -31 17 -31 -13
0 -11 -31 3 -42 5 -3 27 1 48 9 60 24 56 9 -9 -35 -52 -35 -214 -122 -228
-122 -16 0 19 245 36 255 5 3 6 -2 4 -12 -3 -10 2 -4 11 13 l16 31 37 -18 c20
-9 49 -31 65 -48z m-8 -247 c-58 -103 -146 -203 -146 -166 0 33 154 232 168
217 2 -2 -8 -25 -22 -51z m-1372 -313 c64 -108 169 -244 237 -305 128 -115
362 -253 495 -292 85 -25 51 -29 -48 -5 -226 54 -368 129 -509 270 -141 142
-230 301 -287 517 -33 120 -27 121 21 4 23 -58 64 -143 91 -189z m1473 142
c39 -65 70 -120 67 -122 -5 -5 -84 47 -110 73 -11 12 -24 30 -28 41 -12 32
-19 125 -9 125 5 0 41 -53 80 -117z m-2492 -150 c-32 -23 -55 -34 -55 -26 1
10 63 51 70 45 3 -2 -4 -10 -15 -19z m2398 2 c123 -32 281 -132 347 -219 49
-65 92 -159 125 -272 34 -119 31 -131 -13 -49 -42 79 -129 215 -137 215 -3 0
5 -21 19 -47 67 -134 115 -346 103 -459 -11 -109 -99 -242 -172 -260 -111 -28
-299 78 -437 245 -59 71 -45 67 30 -8 54 -55 87 -78 167 -117 89 -43 107 -49
167 -49 60 0 70 3 96 28 36 34 77 124 87 187 l7 45 -31 -46 c-52 -78 -63 -84
-150 -84 -69 0 -85 4 -152 37 -41 20 -91 54 -112 75 -82 81 -137 191 -137 271
0 20 -5 50 -12 68 -7 21 -8 40 -2 53 9 20 10 20 90 -12 45 -18 105 -50 135
-71 53 -37 53 -36 -23 38 -42 41 -101 91 -132 112 l-57 37 3 136 3 135 40 12
c54 17 81 17 148 -1z m540 -140 c117 -25 208 -75 297 -164 89 -89 129 -154
169 -277 25 -79 51 -224 51 -292 0 -33 -18 -18 -31 28 -7 21 -28 56 -48 78
-20 21 -74 94 -121 162 -110 159 -170 229 -319 373 -84 80 -115 116 -99 113
12 -3 58 -12 101 -21z m-2765 -79 c32 -16 116 -109 227 -251 82 -106 115 -143
100 -115 -5 8 -17 28 -28 43 -10 16 -16 31 -13 34 7 7 4 10 45 -50 18 -26 36
-45 42 -42 5 3 6 -1 3 -9 -4 -9 22 -44 72 -95 42 -45 74 -81 71 -81 -11 0
-211 98 -247 121 l-35 22 30 -27 c54 -48 138 -103 225 -146 47 -23 89 -49 93
-56 5 -8 12 -12 16 -9 10 5 33 -18 30 -31 -4 -22 2 -42 19 -60 29 -31 96 -134
137 -209 20 -38 48 -83 62 -99 13 -16 40 -60 59 -99 27 -54 34 -76 28 -96 -4
-14 -8 -44 -9 -66 0 -22 -3 -40 -6 -40 -10 0 -184 129 -208 155 l-23 25 16
-40 c10 -22 28 -60 42 -84 13 -24 23 -46 20 -48 -8 -8 -55 9 -69 25 -9 10 -48
64 -87 122 -76 111 -78 108 -24 -35 18 -49 31 -91 29 -93 -13 -13 -35 13 -44
50 l-10 43 2 -45 2 -45 -102 0 c-56 0 -105 3 -108 7 -16 16 -15 249 2 395 l18
153 48 -41 c26 -23 50 -39 53 -36 9 8 -21 58 -71 117 -175 210 -232 291 -323
461 -43 79 -122 264 -122 284 0 8 9 6 38 -9z m4950 -68 c27 -160 27 -158 -2
-158 -28 0 -29 2 -46 110 -15 100 -15 100 31 109 4 0 12 -27 17 -61z m-4262
-65 c57 -78 126 -153 140 -153 8 0 11 6 8 15 -12 30 7 14 49 -43 23 -31 53
-68 66 -81 20 -20 101 -176 101 -195 0 -11 -104 40 -176 86 -91 59 -130 99
-181 190 -43 75 -46 85 -44 128 1 20 3 22 11 10 14 -21 12 -9 -5 39 -18 51 -6
53 31 4z m2250 -175 c44 -46 102 -114 129 -153 26 -38 58 -81 69 -94 l21 -24
-30 7 c-16 3 -50 7 -73 9 -24 2 -47 9 -50 15 -4 6 -14 12 -22 14 -21 4 -94 73
-110 103 -7 14 -17 25 -22 25 -5 0 -4 -9 2 -20 6 -11 8 -20 6 -20 -8 0 -42 71
-50 104 -4 16 -25 74 -47 129 -21 54 -39 101 -39 104 0 9 133 -114 216 -199z
m-2324 -120 c49 -25 306 -128 354 -142 48 -14 59 -41 57 -142 -2 -93 -13 -134
-36 -134 -7 0 -30 14 -51 30 -21 16 -42 27 -46 25 -4 -2 -22 12 -41 33 -21 22
-24 29 -9 17 25 -20 25 -20 10 0 -19 26 -42 44 -55 45 -5 0 -3 -5 5 -10 8 -5
11 -10 6 -10 -9 0 -52 37 -176 154 -42 39 -97 89 -124 112 l-50 41 22 23 c18
19 19 26 9 39 -6 9 7 0 30 -19 23 -19 66 -47 95 -62z m4130 51 c21 -11 38 -21
38 -24 0 -14 -44 -85 -64 -104 -23 -21 -28 -22 -78 -12 -29 6 -65 12 -80 14
l-27 2 37 61 c56 93 60 97 101 89 19 -4 52 -15 73 -26z m216 -28 c66 -34 165
-112 265 -209 107 -105 116 -128 77 -187 -11 -16 -20 -25 -20 -20 0 6 -14 26
-31 45 -29 33 -30 33 -13 5 21 -36 25 -141 6 -176 -11 -22 -69 -69 -84 -69 -3
0 -2 15 4 33 12 39 -2 81 -32 97 -23 12 -27 -2 -5 -20 38 -32 0 -169 -60 -215
-19 -14 -36 -25 -39 -25 -3 0 1 21 9 48 13 42 13 45 -1 27 -9 -11 -27 -40 -41
-65 -56 -98 -96 -153 -152 -208 -73 -72 -163 -122 -221 -122 -50 0 -50 19 0
36 l34 11 -46 7 c-62 9 -108 42 -135 96 -31 60 -30 80 5 80 23 1 24 2 10 11
-36 20 -16 27 63 22 45 -2 98 -2 117 2 l34 6 -21 23 c-25 27 -28 51 -5 42 9
-3 27 3 41 14 16 12 41 20 66 20 53 0 43 8 -34 26 -68 16 -132 48 -163 83 -27
30 -36 26 -29 -15 5 -30 3 -36 -15 -41 -12 -3 -19 -10 -15 -19 3 -8 1 -14 -5
-14 -17 0 -33 61 -26 99 9 51 44 111 74 126 23 12 36 10 120 -20 52 -18 113
-40 135 -49 l40 -17 -30 23 c-16 13 -40 32 -52 44 -12 12 -33 24 -48 28 -16 4
-23 11 -19 19 4 7 4 9 -1 5 -7 -7 -105 37 -105 47 0 3 12 24 27 46 26 39 29
41 68 37 22 -3 99 -33 170 -67 70 -33 130 -60 132 -58 2 2 -35 27 -82 56 -47
28 -85 56 -85 61 0 5 -25 23 -56 41 l-56 32 40 40 c37 36 43 39 77 33 21 -4
89 -34 152 -66 62 -32 113 -57 113 -56 0 2 -47 40 -105 85 -58 45 -105 86
-105 91 0 4 -8 6 -17 4 -10 -2 -24 0 -32 5 -12 8 -12 13 2 35 16 24 57 66 64
66 2 0 20 -9 41 -19z m-3205 2 c-7 -2 -19 -2 -25 0 -7 3 -2 5 12 5 14 0 19 -2
13 -5z m-288 -105 c112 -13 259 -49 332 -82 77 -36 232 -194 296 -302 39 -69
47 -90 47 -133 0 -89 -44 -161 -98 -161 -16 0 -37 8 -46 19 -16 18 -16 18 9
13 35 -6 66 23 63 60 -2 20 -8 28 -21 28 -18 0 -78 54 -75 68 3 16 -15 41 -25
35 -5 -3 -7 -1 -4 4 4 6 -10 44 -30 84 -26 52 -38 89 -39 124 -1 28 -3 60 -3
73 -2 38 -15 24 -46 -49 -16 -38 -36 -75 -44 -82 -12 -10 -13 -9 -3 10 7 12
12 34 12 50 l-1 28 -16 -27 c-19 -29 -88 -64 -148 -74 -22 -4 -46 -11 -53 -17
-24 -19 -172 -12 -237 12 -33 12 -67 24 -75 25 -15 3 -25 30 -33 97 -5 41 -31
161 -44 203 -5 18 0 18 93 12 55 -4 140 -12 189 -18z m3154 -26 c23 -9 41 -21
40 -27 -2 -5 -8 -9 -12 -7 -5 1 -6 -1 -3 -6 6 -10 -28 -44 -61 -61 -32 -16
-58 -14 -84 8 l-24 20 24 45 c27 52 46 57 120 28z m-5776 -117 c-3 -9 -8 -14
-10 -11 -3 3 -2 9 2 15 9 16 15 13 8 -4z m4330 -74 c121 -58 250 -207 314
-360 33 -82 30 -134 -14 -188 -18 -23 -18 -22 -18 40 -1 41 -8 77 -22 107 -20
43 -21 44 -20 14 0 -49 -32 -132 -61 -155 -23 -18 -36 -20 -84 -16 -72 6 -130
34 -187 89 -103 100 -163 237 -165 379 -1 70 2 80 24 104 24 25 29 27 95 23
52 -4 88 -13 138 -37z m1301 -6 c-4 -8 1 -18 10 -21 13 -5 10 -17 -21 -77 -20
-40 -42 -88 -49 -107 -14 -34 -14 -32 -10 40 3 55 11 91 31 133 14 31 31 55
35 52 5 -3 7 -12 4 -20z m-3144 -107 c19 -6 30 -13 23 -15 -6 -2 -31 5 -55 16
-24 12 -34 18 -23 15 11 -3 36 -11 55 -16z m-370 -8 c0 -5 -2 -10 -4 -10 -3 0
-8 5 -11 10 -3 6 -1 10 4 10 6 0 11 -4 11 -10z m-2092 -25 c33 -10 58 -25 68
-40 19 -29 54 -158 53 -200 l0 -30 -18 23 c-14 16 -30 22 -61 22 -36 0 -41 2
-30 15 24 29 -17 127 -61 146 -29 11 -150 8 -195 -6 -12 -4 -10 -1 6 10 25 16
24 16 -20 10 -24 -3 -46 -7 -47 -9 -2 -2 10 -45 25 -97 46 -148 45 -146 20
-160 -20 -10 -21 -10 -11 2 9 11 3 39 -25 127 -40 125 -32 118 -112 97 -25 -6
-25 -6 -5 10 33 27 121 63 183 74 127 24 167 24 230 6z m3487 -147 c-18 -64
-89 -189 -133 -234 -48 -48 -154 -114 -185 -114 -10 0 -21 -16 -29 -42 -25
-86 -123 -143 -194 -113 -17 7 -35 18 -39 25 -6 9 -2 9 15 0 17 -9 28 -9 51 0
25 11 27 15 17 34 -6 11 -7 18 -3 14 5 -4 15 -2 23 5 13 10 15 9 9 -6 -4 -11
-3 -16 3 -12 6 4 9 13 8 20 -2 8 0 13 3 12 11 -4 40 26 56 57 l15 31 -28 -26
c-75 -66 -126 -73 -163 -21 -36 52 -36 58 5 231 l5 24 27 -25 c15 -14 60 -49
100 -77 39 -29 72 -58 72 -64 0 -6 11 0 25 13 31 29 38 24 25 -21 -16 -56 -12
-56 51 6 67 67 108 121 155 208 20 37 43 64 65 77 45 25 52 24 44 -2z m-866
-18 c192 -24 237 -37 233 -65 -6 -35 -53 -124 -93 -175 -35 -44 -44 -50 -77
-50 -83 0 -218 53 -246 95 -9 14 -22 48 -30 77 -8 29 -20 66 -27 82 -12 26
-11 30 11 48 14 12 32 17 46 14 11 -3 94 -15 183 -26z m2866 3 c-19 -45 -35
-134 -35 -198 -1 -80 -14 -65 -26 31 -5 46 -9 54 -15 37 -9 -26 -38 -45 -133
-93 l-71 -36 1 -74 c2 -85 27 -164 74 -229 31 -42 104 -101 125 -101 6 0 63
34 126 75 107 70 139 86 139 67 0 -4 19 -6 43 -4 41 4 42 4 24 -15 -26 -29
-170 -131 -216 -154 -53 -25 -82 -24 -139 5 -92 47 -175 159 -202 275 -26 110
5 286 59 335 18 17 215 95 240 96 9 0 11 -6 6 -17z m-5954 -4 c50 -15 85 -53
113 -123 13 -30 25 -54 27 -52 2 3 4 -34 3 -80 -1 -77 -3 -88 -30 -127 -60
-84 -127 -88 -200 -12 -54 56 -79 127 -78 222 1 82 21 125 74 160 38 27 40 27
91 12z m6191 -51 c-8 -8 -17 -8 -34 0 -22 10 -21 11 12 11 26 1 31 -2 22 -11z
m-3478 -101 c47 -57 126 -177 179 -269 l27 -46 97 -6 c167 -11 203 -16 203
-31 0 -11 -34 -12 -182 -8 -121 3 -187 8 -194 16 -7 7 -35 66 -64 132 -28 66
-70 158 -92 205 -21 47 -35 81 -30 75 5 -5 31 -36 56 -68z m1786 43 c0 -5 -2
-10 -4 -10 -3 0 -8 5 -11 10 -3 6 -1 10 4 10 6 0 11 -4 11 -10z m1076 -80 c-3
-16 -9 -43 -12 -60 -3 -16 -15 -37 -27 -46 l-22 -16 23 7 c43 13 21 -6 -38
-32 -33 -14 -59 -27 -57 -29 1 -2 26 3 55 10 l52 14 0 -26 c0 -15 6 -60 14
-99 7 -40 12 -73 10 -73 -3 0 4 -12 13 -27 10 -15 13 -24 6 -20 -8 5 -27 -7
-51 -30 -48 -48 -80 -73 -90 -71 -4 1 -38 -8 -77 -20 -128 -40 -382 -50 -442
-18 -16 8 -59 47 -98 86 l-70 72 65 -33 c126 -63 206 -72 334 -39 86 22 163
60 198 98 l23 25 -35 -18 c-21 -11 -67 -20 -120 -23 -72 -4 -94 -1 -132 16
-26 11 -54 32 -63 46 -28 42 1 105 85 187 107 104 215 147 373 148 l89 1 -6
-30z m466 -28 c3 -27 12 -63 21 -80 8 -18 12 -32 7 -32 -4 0 -15 16 -24 35
-20 42 -34 141 -19 132 6 -4 13 -28 15 -55z m-5576 -2 c-20 -22 -36 -42 -36
-44 0 -3 25 10 55 28 76 46 136 62 188 49 173 -44 285 -76 304 -89 13 -8 26
-27 30 -42 12 -51 45 -117 89 -179 24 -34 44 -68 44 -75 0 -7 -9 -26 -20 -43
-19 -27 -20 -40 -14 -129 5 -76 4 -100 -6 -106 -8 -5 -123 -6 -257 -4 -272 4
-279 6 -358 75 -51 46 -52 40 -3 -23 24 -31 26 -39 15 -50 -12 -11 -12 -18 0
-48 29 -70 47 -105 57 -112 7 -5 3 -8 -7 -8 -37 0 -87 33 -126 84 -22 28 -52
63 -67 76 l-27 25 17 -32 c9 -18 16 -36 15 -39 0 -4 3 -10 8 -13 13 -10 62
-171 52 -171 -21 0 -69 31 -87 58 -11 15 -48 90 -82 167 -34 77 -81 182 -105
233 -24 50 -40 92 -34 92 5 0 30 -19 54 -41 25 -23 45 -39 45 -36 0 3 -16 34
-36 68 -33 56 -35 62 -20 77 14 15 19 13 52 -18 20 -20 35 -28 33 -20 -1 8 0
22 4 30 10 28 16 90 8 95 -15 9 25 109 50 125 13 9 39 27 58 40 19 13 50 25
70 27 19 2 37 6 40 8 2 3 11 5 19 5 9 0 1 -15 -22 -40z m3814 -182 c72 -51
269 -153 278 -143 3 3 -11 22 -31 43 -20 21 -37 42 -37 47 0 5 7 0 15 -11 12
-16 16 -17 24 -4 6 8 14 11 18 6 4 -5 2 -11 -5 -13 -10 -4 -8 -11 8 -28 12
-13 27 -21 34 -19 15 6 146 -130 204 -211 50 -71 133 -160 183 -198 48 -36
164 -61 239 -52 30 4 84 22 122 41 75 38 310 185 334 209 24 23 37 7 17 -20
-10 -13 -58 -56 -108 -96 -115 -91 -115 -92 -78 -79 47 17 177 85 237 125 53
35 80 42 104 27 16 -11 -121 -109 -242 -173 -50 -26 -140 -64 -200 -84 -189
-64 -336 -59 -469 13 -61 33 -169 146 -274 287 l-82 111 -86 28 c-141 46 -246
134 -329 278 l-20 33 40 -35 c21 -20 68 -56 104 -82z m-2045 16 c107 -10 275
-55 275 -73 0 -4 -75 -20 -167 -35 -93 -15 -172 -31 -178 -36 -23 -18 -241
-91 -346 -116 -63 -15 -132 -33 -153 -41 l-40 -14 23 25 c47 50 216 116 356
140 17 2 -24 3 -90 0 -66 -3 -147 -11 -180 -19 -33 -8 -63 -15 -68 -15 -4 0
13 40 38 89 l45 89 98 7 c53 3 108 7 122 9 30 4 181 -2 265 -10z m2298 -38 c7
2 32 -9 56 -26 33 -21 41 -31 29 -35 -8 -3 -21 -5 -29 -3 -9 2 -13 -4 -11 -17
4 -20 4 -20 -11 0 -10 13 -12 22 -5 26 7 4 6 9 -1 13 -6 4 -8 12 -5 18 4 6 0
6 -13 -1 -24 -12 -33 -5 -32 23 0 12 3 16 5 9 3 -7 11 -10 17 -7z m1997 -69
c0 -54 -107 -335 -181 -477 -85 -162 -120 -210 -152 -210 -16 0 -26 3 -24 8 3
4 24 38 47 77 80 131 178 340 220 470 23 71 47 133 53 137 19 12 37 9 37 -5z
m-3006 -79 c-11 -116 -12 -118 -39 -106 -14 6 -25 15 -25 19 0 23 55 139 66
139 2 0 1 -24 -2 -52z m-999 23 c55 -8 52 -11 -50 -38 l-70 -18 125 -3 c69 -2
152 2 185 7 81 14 339 26 362 17 16 -7 15 -9 -9 -22 -16 -8 -28 -19 -28 -24 0
-5 35 -16 78 -25 294 -63 408 -97 540 -164 48 -24 78 -31 187 -41 72 -6 146
-15 165 -19 34 -7 33 -8 -37 -25 -40 -10 -73 -21 -73 -25 0 -3 51 -23 113 -44
61 -21 171 -67 243 -101 73 -35 156 -72 185 -82 l54 -18 -49 -14 c-26 -7 -44
-17 -40 -21 5 -5 55 -42 111 -85 56 -42 125 -99 153 -127 81 -81 174 -212 108
-152 -35 31 -166 116 -254 165 -109 61 -216 104 -316 128 -92 23 -357 38 -424
25 l-39 -7 42 -18 c23 -10 47 -28 53 -39 13 -25 8 -26 -28 -7 -119 60 -431 63
-617 5 -37 -11 -76 -18 -88 -16 -55 9 187 92 358 122 157 27 323 37 562 34
128 -2 233 -3 233 -2 0 12 -78 35 -190 56 -265 52 -308 56 -611 62 -292 6
-365 2 -612 -34 -32 -4 -54 -5 -50 -1 4 4 50 33 102 64 52 31 87 56 78 56 -9
0 -67 -15 -129 -34 -145 -44 -239 -68 -244 -63 -13 13 178 82 334 121 104 27
435 86 478 86 49 0 22 18 -38 25 -98 12 -369 21 -375 13 -2 -5 -14 -8 -26 -7
-12 0 -16 3 -9 6 6 2 12 9 12 15 0 15 -174 4 -352 -23 -76 -11 -147 -19 -156
-17 -20 5 116 59 215 87 48 13 63 21 51 26 -24 10 -23 25 1 25 11 0 22 4 25 9
8 12 -179 26 -334 25 -132 -1 -236 -20 -367 -69 -34 -13 -63 -21 -66 -19 -3 3
-38 -13 -78 -36 -83 -47 -81 -42 50 95 53 55 85 90 71 79 -14 -12 -38 -30 -55
-40 -29 -18 -29 -18 -15 0 8 10 39 34 70 53 30 20 58 41 62 47 4 6 8 7 8 3 0
-4 10 -2 23 5 13 8 75 15 152 19 188 8 185 8 240 0z m870 -60 c28 -19 52 -36
54 -38 2 -2 2 -5 -1 -9 -7 -7 -128 76 -128 88 0 11 6 7 75 -41z m-1635 -119
c-25 -20 -78 -68 -117 -106 l-73 -69 0 -169 0 -168 -51 0 -50 0 3 190 c3 213
-6 189 95 250 45 28 219 109 233 109 3 0 -15 -17 -40 -37z m-767 -139 c-7 -2
-21 -2 -30 0 -10 3 -4 5 12 5 17 0 24 -2 18 -5z m-45 -112 c-22 -36 -103 -42
-189 -13 l-54 17 70 6 c39 3 96 6 128 7 54 2 57 1 45 -17z m-1227 -505 c63
-14 141 -47 182 -78 17 -13 16 -18 -22 -98 -23 -46 -41 -90 -41 -98 0 -10 -8
-9 -32 6 -84 51 -218 67 -275 32 -45 -27 -61 -87 -36 -138 15 -32 36 -46 143
-102 156 -81 190 -107 225 -172 70 -128 28 -333 -84 -415 -79 -59 -110 -68
-231 -68 -103 0 -121 3 -171 26 -64 30 -139 93 -139 117 0 12 69 140 87 161 2
3 34 -11 71 -31 81 -45 139 -59 190 -47 81 18 120 112 68 164 -13 13 -65 44
-115 69 -116 58 -170 95 -215 148 -97 112 -86 305 23 421 53 57 104 86 181
103 74 16 112 16 191 0z m501 -422 l3 -436 28 -24 c40 -34 105 -33 146 2 l31
26 2 431 3 432 118 3 117 3 0 -415 c0 -269 -4 -434 -11 -468 -32 -151 -132
-247 -278 -268 -87 -12 -148 -3 -221 33 -74 37 -117 87 -149 172 -20 53 -21
74 -21 500 l0 445 115 0 114 0 3 -436z m1028 405 c79 -37 125 -81 162 -156 27
-55 33 -79 36 -156 7 -148 -26 -252 -108 -334 -66 -66 -160 -102 -267 -103
l-53 0 -2 -182 -3 -183 -112 -3 -113 -3 0 577 0 576 203 -4 c193 -3 204 -4
257 -29z m825 -84 l0 -110 -153 -3 -153 -3 3 -117 3 -117 103 0 102 0 0 -102
0 -103 -105 0 -105 0 0 -125 0 -125 150 0 150 0 0 -115 0 -115 -265 0 -265 0
0 575 0 575 268 -2 267 -3 0 -110z m592 81 c69 -32 144 -103 171 -164 13 -29
17 -68 17 -177 0 -133 -1 -143 -28 -197 -26 -52 -86 -119 -118 -130 -14 -5 2
-44 123 -291 38 -76 68 -142 68 -148 0 -6 -46 -9 -121 -7 l-121 3 -82 189 -83
189 -36 1 -37 1 0 -192 0 -193 -114 0 -113 0 -6 88 c-9 128 -9 1047 0 1056 4
4 100 6 213 4 202 -3 206 -3 267 -32z m993 6 c67 -23 136 -58 145 -72 5 -8
-71 -164 -91 -189 -2 -2 -29 9 -61 24 -73 35 -175 45 -220 22 -17 -9 -38 -33
-48 -53 -14 -31 -15 -43 -6 -75 14 -45 32 -60 177 -133 61 -31 130 -75 154
-98 83 -80 109 -193 71 -316 -56 -186 -245 -275 -466 -220 -77 19 -195 103
-195 138 0 21 78 170 89 170 3 0 23 -12 44 -26 70 -47 118 -64 188 -64 79 0
112 20 130 79 19 65 -2 90 -127 150 -194 94 -268 162 -294 272 -35 147 49 320
186 380 96 43 220 47 324 11z m713 -139 c20 -93 75 -341 122 -553 47 -212 87
-395 90 -408 l6 -23 -118 3 -118 3 -13 55 c-7 30 -15 65 -18 78 -4 22 -7 23
-121 20 l-116 -3 -21 -75 -22 -75 -117 -3 c-82 -2 -117 1 -117 9 0 6 12 54 26
107 14 54 41 167 60 252 19 85 69 296 111 468 l77 312 126 0 126 0 37 -167z
m532 125 c4 -24 5 -63 3 -88 l-3 -44 -47 82 c-27 45 -48 84 -48 87 0 3 20 5
44 5 l45 0 6 -42z m394 -155 c41 -109 77 -201 80 -205 7 -8 23 33 111 285 l42
117 125 0 c69 0 123 -4 121 -8 -1 -4 -22 -53 -45 -108 -23 -54 -88 -215 -143
-357 l-101 -257 1 -210 1 -210 -111 0 -110 0 0 211 0 211 -49 131 c-76 201
-155 403 -195 497 -20 46 -36 88 -36 92 0 4 53 8 118 8 l118 0 73 -197z m947
137 c7 -30 42 -199 78 -375 81 -390 146 -687 152 -696 7 -12 -40 -19 -138 -19
-110 0 -110 0 -123 84 -11 80 -5 76 -130 76 l-113 0 -18 -80 -17 -80 -120 0
c-119 0 -119 0 -113 23 3 12 29 119 57 237 114 476 211 875 216 883 2 4 61 6
131 5 l127 -3 11 -55z m531 -52 c28 -62 86 -196 129 -298 l79 -185 3 298 2
297 110 0 110 0 -2 -572 -3 -573 -85 -3 c-123 -4 -123 -4 -160 85 -54 133
-181 426 -199 461 -16 31 -16 18 -13 -258 l4 -290 -111 0 -111 0 0 575 0 575
99 0 98 0 50 -112z m-1938 -338 l66 -56 3 -322 2 -322 -114 0 c-71 0 -117 4
-121 11 -4 6 -4 190 0 409 l8 399 45 -32 c24 -18 74 -57 111 -87z m-1553 -871
c38 -37 49 -79 30 -123 -33 -80 -126 -102 -190 -46 -46 41 -53 78 -26 134 39
81 122 97 186 35z m1014 -43 c0 -2 -25 -20 -55 -40 l-55 -36 -173 2 -172 3
210 36 c214 37 245 42 245 35z m-1685 -51 l60 -24 -1186 0 c-1073 -1 -1187 1
-1193 15 -3 9 -6 20 -6 25 0 5 451 9 1133 8 l1132 0 60 -24z m3491 9 c-3 -9
-6 -20 -6 -25 0 -5 -255 -9 -632 -8 -581 0 -630 2 -593 16 22 8 54 19 70 23
17 4 286 8 599 9 514 1 568 -1 562 -15z m-5426 -363 c0 -33 -14 -41 -67 -41
l-54 0 3 -57 c3 -50 6 -58 23 -59 49 -2 55 -5 55 -24 0 -17 -7 -20 -40 -20
l-40 0 0 -90 c0 -89 0 -90 -25 -90 -24 0 -25 3 -25 58 0 33 3 120 7 195 l6
137 79 0 c43 0 78 -4 78 -9z m330 -186 l0 -195 -25 0 -25 0 0 170 c0 107 -4
170 -10 170 -5 0 -10 11 -10 25 0 22 4 25 35 25 l35 0 0 -195z m378 128 c17
-38 42 -93 56 -123 l24 -55 1 123 1 122 25 0 25 0 0 -195 c0 -183 -1 -195 -18
-195 -14 0 -33 30 -75 118 l-56 117 -1 -117 0 -118 -25 0 -25 0 0 195 c0 183
1 195 19 195 13 0 27 -20 49 -67z m582 42 c0 -24 -3 -25 -61 -25 l-60 0 3 -52
3 -53 43 -3 c37 -3 42 -6 42 -28 0 -22 -4 -24 -45 -24 l-46 0 3 -67 3 -68 63
-3 c54 -3 62 -6 62 -22 0 -18 -7 -20 -85 -20 l-85 0 0 195 0 195 80 0 c79 0
80 0 80 -25z m420 15 c23 -12 46 -78 32 -92 -13 -13 -48 -5 -44 10 4 21 -18
52 -37 52 -24 0 -38 -18 -43 -55 -2 -24 3 -33 30 -50 104 -64 97 -55 100 -126
4 -87 -19 -119 -83 -119 -60 0 -86 23 -92 84 l-6 48 29 -4 c26 -3 30 -8 34
-43 4 -28 10 -41 23 -43 32 -6 47 17 47 73 0 51 -1 52 -41 71 -75 33 -89 50
-89 105 0 40 5 55 25 74 26 27 80 34 115 15z m440 0 c16 -9 40 -64 40 -92 0
-5 -13 -8 -29 -8 -25 0 -30 5 -33 26 -7 61 -68 52 -68 -10 0 -28 6 -36 52 -62
29 -16 58 -41 65 -54 27 -54 8 -158 -32 -174 -9 -3 -33 -6 -53 -6 -52 0 -82
32 -82 87 0 39 2 43 25 43 22 0 25 -4 25 -34 0 -44 22 -63 55 -48 22 10 25 18
25 66 l0 55 -57 32 c-70 39 -73 43 -73 95 0 60 30 94 81 94 22 0 49 -5 59 -10z
m390 -15 c0 -21 -5 -25 -29 -25 -26 0 -29 -3 -35 -46 -3 -26 -6 -102 -6 -170
0 -117 -1 -124 -20 -124 -21 0 -24 34 -25 288 l0 52 -32 0 c-29 0 -33 3 -33
25 0 25 1 25 90 25 89 0 90 0 90 -25z m361 -4 c28 -34 27 -153 -1 -181 -19
-19 -19 -20 1 -86 11 -36 23 -73 26 -80 3 -10 -3 -14 -19 -14 -22 0 -28 10
-52 80 -17 48 -34 80 -42 80 -11 0 -14 -18 -14 -80 0 -79 0 -80 -25 -80 l-25
0 0 188 c0 104 3 192 8 196 4 4 34 6 66 4 46 -4 63 -9 77 -27z m435 -31 c11
-45 38 -167 69 -307 5 -19 1 -23 -19 -23 -21 0 -25 6 -31 41 l-7 40 -46 -3
c-46 -3 -47 -3 -50 -40 -3 -33 -7 -38 -28 -38 -24 0 -25 2 -19 48 4 26 20 111
36 188 16 78 29 145 29 148 0 4 12 6 27 4 23 -3 28 -10 39 -58z m488 38 c17
-15 27 -35 28 -58 3 -32 0 -35 -24 -38 -25 -3 -28 0 -28 27 0 39 -28 56 -58
35 -21 -14 -22 -24 -22 -139 0 -99 3 -127 16 -139 29 -29 64 -12 64 31 0 19 5
23 30 23 34 0 37 -13 16 -65 -10 -24 -23 -36 -43 -40 -15 -4 -33 -8 -39 -10
-5 -1 -24 3 -41 10 -45 19 -56 63 -51 214 3 120 4 123 31 147 36 31 87 32 121
2z m370 -58 c-2 -85 3 -83 57 23 24 46 34 57 54 57 14 0 25 -3 25 -6 0 -3 -20
-45 -45 -93 -52 -100 -52 -97 20 -219 19 -33 35 -63 35 -66 0 -3 -12 -6 -27
-6 -25 0 -32 9 -68 83 l-39 82 -3 -40 c-8 -102 -14 -125 -33 -125 -10 0 -22 4
-25 10 -3 5 -3 93 1 195 7 181 8 186 28 183 19 -3 21 -9 20 -78z m564 58 c-3
-20 -10 -23 -55 -26 l-53 -3 0 -55 0 -54 40 0 c36 0 40 -2 40 -25 0 -22 -4
-25 -40 -25 l-40 0 0 -65 0 -65 55 0 c52 0 55 -1 55 -25 0 -25 -1 -25 -80 -25
l-80 0 0 195 0 195 81 0 c78 0 80 -1 77 -22z m391 7 c16 -8 31 -22 35 -30 13
-34 6 -137 -11 -165 -16 -28 -16 -31 10 -97 15 -38 27 -72 27 -76 0 -4 -11 -7
-24 -7 -22 0 -27 9 -51 80 -21 63 -31 80 -46 80 -17 0 -19 -8 -19 -80 0 -79 0
-80 -25 -80 l-25 0 0 188 c0 104 3 192 7 195 12 13 94 7 122 -8z"/>
<path d="M4980 8367 c0 -9 4 -18 9 -21 5 -4 8 1 7 9 -3 21 -16 31 -16 12z"/>
<path d="M4996 8315 c4 -8 8 -15 10 -15 2 0 4 7 4 15 0 8 -4 15 -10 15 -5 0
-7 -7 -4 -15z"/>
<path d="M1973 6800 c0 -30 2 -43 4 -27 2 15 2 39 0 55 -2 15 -4 2 -4 -28z"/>
<path d="M1970 6031 c0 -81 25 -214 79 -425 l38 -150 6 160 c5 165 30 321 67
430 25 73 14 62 -40 -38 -23 -43 -48 -78 -55 -78 -13 0 -33 62 -27 83 1 4 -1
6 -5 6 -24 -4 -33 5 -39 36 -11 61 -24 49 -24 -24z m47 -43 c-3 -8 -6 -5 -6 6
-1 11 2 17 5 13 3 -3 4 -12 1 -19z"/>
<path d="M5481 7153 c-1 -6 -4 -20 -7 -30 -5 -17 -5 -17 6 0 6 10 9 23 6 30
-3 9 -5 9 -5 0z"/>
<path d="M5602 6765 c0 -16 2 -22 5 -12 2 9 2 23 0 30 -3 6 -5 -1 -5 -18z"/>
<path d="M5628 6688 c5 -5 16 -8 23 -6 8 3 3 7 -10 11 -17 4 -21 3 -13 -5z"/>
<path d="M5680 6696 c0 -2 9 -6 20 -9 11 -3 18 -1 14 4 -5 9 -34 13 -34 5z"/>
<path d="M5640 6649 c-24 -16 -40 -29 -35 -29 10 0 95 49 95 55 0 10 -16 3
-60 -26z"/>
<path d="M4120 5331 c0 -5 5 -13 10 -16 6 -3 10 -2 10 4 0 5 -4 13 -10 16 -5
3 -10 2 -10 -4z"/>
<path d="M4020 5631 c0 -10 39 -36 45 -29 2 2 -8 11 -21 21 -13 10 -24 13 -24
8z"/>
<path d="M2188 5093 c7 -3 16 -2 19 1 4 3 -2 6 -13 5 -11 0 -14 -3 -6 -6z"/>
<path d="M8019 4419 l-24 -20 28 17 c15 9 27 18 27 20 0 8 -8 4 -31 -17z"/>
<path d="M1853 4925 c-46 -20 -73 -69 -73 -131 0 -77 25 -148 69 -194 32 -34
44 -40 79 -40 33 0 45 6 66 31 14 17 28 41 31 55 3 13 7 35 10 48 7 32 -13
121 -36 168 -32 63 -90 88 -146 63z m93 -62 c17 -17 17 -18 -2 -21 -10 -2 -42
-26 -70 -54 -37 -35 -53 -46 -57 -35 -9 23 24 77 62 103 43 29 45 29 67 7z
m33 -106 c-2 -68 -85 -166 -108 -128 -7 11 -1 19 22 30 31 16 56 46 46 56 -3
3 -26 -6 -51 -20 -41 -23 -46 -24 -52 -9 -4 9 -5 18 -4 19 2 1 23 13 48 27 25
14 53 35 64 47 24 26 36 19 35 -22z"/>
<path d="M2755 4558 l-67 -52 -51 29 c-43 24 -49 25 -42 9 29 -71 44 -114 50
-151 7 -43 21 -53 43 -31 20 20 24 2 8 -36 -17 -41 -15 -42 19 -20 36 23 128
15 193 -17 l51 -25 -16 30 c-9 18 -12 31 -6 33 6 2 18 10 29 17 16 12 13 14
-33 21 -57 7 -113 37 -113 60 0 9 -3 14 -7 12 -5 -3 -9 20 -11 50 -2 42 3 63
19 89 11 19 16 34 11 34 -5 0 -40 -23 -77 -52z"/>
<path d="M2763 4123 c15 -2 39 -2 55 0 15 2 2 4 -28 4 -30 0 -43 -2 -27 -4z"/>
<path d="M2940 3099 l0 -172 54 6 c68 7 110 28 124 64 34 87 26 201 -18 245
-25 25 -35 28 -94 28 l-66 0 0 -171z"/>
<path d="M4340 3104 l0 -166 64 4 c100 6 136 52 136 173 0 113 -40 155 -145
155 l-55 0 0 -166z"/>
<path d="M6087 2944 c-21 -115 -41 -217 -43 -226 -5 -16 3 -18 75 -18 45 0 81
2 81 4 0 2 -13 78 -30 167 -16 90 -33 191 -37 223 -8 59 -8 59 -46 -150z"/>
<path d="M7981 2950 c-18 -107 -36 -207 -38 -222 l-5 -28 71 0 c71 0 71 0 71
28 0 15 -15 115 -33 222 l-33 195 -33 -195z"/>
<path d="M5400 1621 c0 -68 1 -71 24 -71 36 0 47 22 44 82 -3 52 -4 53 -35 56
l-33 3 0 -70z"/>
<path d="M5882 1566 c-16 -86 -16 -86 19 -86 30 0 31 1 25 33 -4 17 -9 51 -13
75 -3 23 -9 42 -13 42 -3 0 -12 -29 -18 -64z"/>
<path d="M7670 1620 l0 -71 33 3 32 3 0 65 0 65 -32 3 -33 3 0 -71z"/>
</g>
</svg>
